<svg id="Слой_1" data-name="Слой 1" xmlns="http://www.w3.org/2000/svg" viewBox="0 0 246 57.63"><defs><style>.cls-1{fill:#010101;}</style></defs><title>Main.logo</title><path class="cls-1" d="M2,21.55V.5H3.21V20.3H16.43v1.25Z"/><path class="cls-1" d="M16.91,22.05H1.48V0h2.2V19.8H16.91Zm-14.48-1H16v-.24H2.73V1h-.3Z"/><path class="cls-1" d="M32.54,1.75V.51h1.24V20.3l0,1.24H32.55V1.75Z"/><path class="cls-1" d="M34.24,22.05H32.07V0h2.19l0,1.74ZM33,21h.28V1H33Z"/><path class="cls-1" d="M172.33,1.76V.51h1.24v21h-1.24V1.76Z"/><path class="cls-1" d="M174.06,22.05h-2.2V0H174l0,1.75Zm-1.25-1h.29V1h-.28Z"/><path class="cls-1" d="M62.38,20.7a11.77,11.77,0,0,0,4-.59A5.81,5.81,0,0,0,69,18.3a7.29,7.29,0,0,0,1.36-3A20.75,20.75,0,0,0,70.7,11V.51H72V11a18.84,18.84,0,0,1-.59,5,8.45,8.45,0,0,1-1.79,3.41,6.84,6.84,0,0,1-3,1.92,14.76,14.76,0,0,1-8.4,0,6.94,6.94,0,0,1-3-1.92A8.46,8.46,0,0,1,53.38,16a18.41,18.41,0,0,1-.6-5V1.84c0-.17,0-1.33,0-1.33H54V11a20,20,0,0,0,.41,4.3,7.29,7.29,0,0,0,1.36,3,5.81,5.81,0,0,0,2.57,1.81A11.83,11.83,0,0,0,62.38,20.7Z"/><path class="cls-1" d="M62.38,22.45A13.62,13.62,0,0,1,58,21.82a7.6,7.6,0,0,1-3.2-2.06,8.89,8.89,0,0,1-1.91-3.61A19,19,0,0,1,52.3,11V1.84c0-.17,0-1.34,0-1.34V0h2.18V11a19.71,19.71,0,0,0,.39,4.19A6.85,6.85,0,0,0,56.17,18a5.29,5.29,0,0,0,2.36,1.65,11.13,11.13,0,0,0,3.85.57,11.07,11.07,0,0,0,3.84-.57A5.34,5.34,0,0,0,68.58,18a6.84,6.84,0,0,0,1.26-2.82A20.38,20.38,0,0,0,70.22,11V0h2.21V11a19.47,19.47,0,0,1-.61,5.18,9.06,9.06,0,0,1-1.9,3.61,7.45,7.45,0,0,1-3.19,2.06A13.7,13.7,0,0,1,62.38,22.45ZM53.27,1c0,.33,0,.73,0,.82V11a17.76,17.76,0,0,0,.58,4.89,8,8,0,0,0,1.68,3.21,6.53,6.53,0,0,0,2.8,1.79,14.47,14.47,0,0,0,8.11,0,6.32,6.32,0,0,0,2.79-1.79,8.09,8.09,0,0,0,1.68-3.21A18.14,18.14,0,0,0,71.47,11V1h-.29V11a20.42,20.42,0,0,1-.41,4.41,7.73,7.73,0,0,1-1.46,3.24,6.23,6.23,0,0,1-2.77,2,12.16,12.16,0,0,1-4.16.62,12.22,12.22,0,0,1-4.17-.62,6.23,6.23,0,0,1-2.77-2A7.89,7.89,0,0,1,54,15.39,20.54,20.54,0,0,1,53.55,11V1Z"/><path class="cls-1" d="M111.57,11a17.49,17.49,0,0,1-.62,5,7.62,7.62,0,0,1-1.84,3.25,6.82,6.82,0,0,1-3,1.74,15.27,15.27,0,0,1-4.22.52H91.18V.53h10.68a15.25,15.25,0,0,1,4.22.53,6.85,6.85,0,0,1,3,1.76A7.77,7.77,0,0,1,111,6.06,17,17,0,0,1,111.57,11Zm-1.25,0a17.56,17.56,0,0,0-.43-4.18A6.58,6.58,0,0,0,108.48,4a5.72,5.72,0,0,0-2.6-1.65,12.88,12.88,0,0,0-4-.53H92.43V20.3h9.43a13.21,13.21,0,0,0,4-.52,5.89,5.89,0,0,0,2.6-1.65,6.64,6.64,0,0,0,1.41-2.89A18,18,0,0,0,110.32,11Z"/><path class="cls-1" d="M101.86,22.05H90.7V0h11.16a15.31,15.31,0,0,1,4.34.55,7.24,7.24,0,0,1,3.24,1.88,8.37,8.37,0,0,1,2,3.45,17.68,17.68,0,0,1,.64,5.09,18.18,18.18,0,0,1-.64,5.19,8.28,8.28,0,0,1-2,3.46,7.43,7.43,0,0,1-3.24,1.87A16.11,16.11,0,0,1,101.86,22.05Zm-10.21-1h10.21a15.11,15.11,0,0,0,4.09-.5,6.33,6.33,0,0,0,2.83-1.63,7.13,7.13,0,0,0,1.71-3,16.85,16.85,0,0,0,.6-4.89,16.23,16.23,0,0,0-.6-4.78,7.25,7.25,0,0,0-1.71-3A6.42,6.42,0,0,0,106,1.54,15.08,15.08,0,0,0,101.86,1H91.65Zm10.21-.24H92V1.28h9.91a13.48,13.48,0,0,1,4.16.55,6.2,6.2,0,0,1,2.81,1.79,7.08,7.08,0,0,1,1.52,3.08,18,18,0,0,1,.45,4.3,18.38,18.38,0,0,1-.45,4.36,7.2,7.2,0,0,1-1.52,3.11A6.23,6.23,0,0,1,106,20.26,13.79,13.79,0,0,1,101.86,20.81Zm-9-1h9a12.92,12.92,0,0,0,3.88-.5,5.39,5.39,0,0,0,2.39-1.52,6.26,6.26,0,0,0,1.3-2.66,18.07,18.07,0,0,0,.41-4.12,17.55,17.55,0,0,0-.41-4,6.22,6.22,0,0,0-1.3-2.65,5.29,5.29,0,0,0-2.39-1.51,12.63,12.63,0,0,0-3.88-.51h-9Z"/><path class="cls-1" d="M140.17,18.93,149.7.51h1.13v21h-1.25V3.46l-8.69,16.47c-.24.42-.48.64-.72.64s-.51-.22-.72-.64L130.76,3.46V21.55h-1.25V.51h1.21Z"/><path class="cls-1" d="M151.31,22.05H149.1V5.4l-7.79,14.77c-.68,1.24-1.69,1.16-2.28,0L131.24,5.4V22.05H129V0h2l9.17,17.86L149.42,0h1.89Zm-1.25-1h.29V1H150l-9.82,19L130.43,1H130v20h.29V1.51l9.59,18.17c.16.32.27.39.3.39a1,1,0,0,0,.3-.39l9.59-18.17Z"/><path class="cls-1" d="M232.1,1.48a6.4,6.4,0,0,1,.36-.76.44.44,0,0,1,.4-.21.45.45,0,0,1,.36.2,4.35,4.35,0,0,1,.41.77l8.7,20.08h-1.45l-2.79-6.47H227.63l-2.78,6.47h-1.48ZM237.67,14,232.86,2.7,228.05,14Z"/><path class="cls-1" d="M243.07,22.06h-2.5l-2.78-6.47h-9.85l-2.78,6.47h-2.54l9-20.79a8.45,8.45,0,0,1,.4-.83.93.93,0,0,1,1.53,0,5.06,5.06,0,0,1,.47.87Zm-1.88-1h.4l-8.4-19.38a3.76,3.76,0,0,0-.34-.65,3.64,3.64,0,0,0-.32.66l-.43-.21.43.21-8.42,19.37h.43l2.78-6.47H238.4Zm-2.78-6.58h-11.1l5.55-13Zm-9.62-1h8.14l-4.07-9.54Z"/><path class="cls-1" d="M194.83,21.56V.51h1.25v19.8H209.3v1.25Z"/><path class="cls-1" d="M209.78,22.06H194.35V0h2.21v19.8h13.22Zm-14.47-1h13.51v-.24H195.6V1h-.29Z"/><path class="cls-1" d="M63.37,54,72.2,34.7h1.25L64.12,55.06a1.37,1.37,0,0,1-.36.5.63.63,0,0,1-.41.16q-.43,0-.75-.66L53.2,34.68h1.27Z"/><path class="cls-1" d="M63.25,57.23a2.27,2.27,0,0,1-1.94-1.5L50.91,33.18h4.46l8,17.37L71.29,33.2l4.46,0L65.41,55.72a2.85,2.85,0,0,1-.78,1,2,2,0,0,1-1.13.46Z"/><path class="cls-1" d="M91.5,45.62l7-10.95,1.43,0L92.13,46.83v8.91l-1.25,0V46.79L83.09,34.67h1.4Z"/><polygon class="cls-1" points="93.57 57.26 89.44 57.22 89.44 47.25 80.39 33.16 85.25 33.16 91.5 42.92 97.76 33.15 102.63 33.23 93.57 47.29 93.57 57.26"/><path class="cls-1" d="M157.29,55.72H142.21v-21h15.08v1.24H143.46V44.2h13.41v1.29H143.46v9h13.83Z"/><polygon class="cls-1" points="158.73 57.23 140.77 57.23 140.77 33.18 158.72 33.18 158.72 37.44 144.89 37.44 144.89 42.7 158.31 42.7 158.31 46.99 144.89 46.99 144.89 52.97 158.72 52.97 158.73 57.23"/><path class="cls-1" d="M185.45,53.34V34.69h1.24v21h-.85L170.2,37.39V55.72H169v-21h.93Z"/><polygon class="cls-1" points="186.69 57.23 185.2 57.23 171.64 41.34 171.64 57.23 167.51 57.23 167.51 33.18 170.54 33.18 184.01 49.33 184.01 33.18 188.13 33.18 188.13 57.23 186.69 57.23"/><path class="cls-1" d="M204.25,44,214,55.72h-1.68l-9-10.95-3,2.57v8.38H199v-21h1.29l0,11.15,12.09-11.15h1.92Z"/><polygon class="cls-1" points="197.58 57.23 197.58 33.19 201.75 33.17 201.73 42.49 211.83 33.18 218.08 33.18 206.27 44.13 217.2 57.23 211.69 57.23 203.14 46.85 201.72 48.06 201.72 57.23 197.58 57.23"/><path class="cls-1" d="M244.56,45.2a16.06,16.06,0,0,1-.64,4.81,7.89,7.89,0,0,1-5.33,5.44,17.74,17.74,0,0,1-9.66,0,8.11,8.11,0,0,1-3.36-2,8.32,8.32,0,0,1-2-3.41A16.06,16.06,0,0,1,223,45.2a16,16,0,0,1,.64-4.8,8.32,8.32,0,0,1,2-3.41,8.11,8.11,0,0,1,3.36-2,17.74,17.74,0,0,1,9.66,0,7.89,7.89,0,0,1,5.33,5.44A16,16,0,0,1,244.56,45.2Zm-20.34,0a14.86,14.86,0,0,0,.58,4.48,7.23,7.23,0,0,0,1.78,3,6.74,6.74,0,0,0,3,1.68,17.26,17.26,0,0,0,8.41,0,6.87,6.87,0,0,0,3-1.68,7.23,7.23,0,0,0,1.78-3,14.86,14.86,0,0,0,.58-4.48,14.9,14.9,0,0,0-.58-4.46,7.21,7.21,0,0,0-1.78-3,6.87,6.87,0,0,0-3-1.68,17.26,17.26,0,0,0-8.41,0,6.74,6.74,0,0,0-3,1.68,7.21,7.21,0,0,0-1.78,3A14.9,14.9,0,0,0,224.22,45.2Z"/><path class="cls-1" d="M233.76,57.63a17,17,0,0,1-5.26-.74,9.65,9.65,0,0,1-3.94-2.4,9.89,9.89,0,0,1-2.32-4,17.9,17.9,0,0,1-.71-5.28,17.88,17.88,0,0,1,.71-5.27,10.07,10.07,0,0,1,2.32-4,9.7,9.7,0,0,1,3.94-2.39,19.06,19.06,0,0,1,10.52,0,9.35,9.35,0,0,1,6.27,6.41A17.88,17.88,0,0,1,246,45.2a17.9,17.9,0,0,1-.71,5.28,10,10,0,0,1-2.33,4A9.77,9.77,0,0,1,239,56.89,17,17,0,0,1,233.76,57.63Zm0-20.59a13.8,13.8,0,0,0-3.82.47,5.51,5.51,0,0,0-2.38,1.32,5.79,5.79,0,0,0-1.39,2.39,13.25,13.25,0,0,0-.52,4,13.3,13.3,0,0,0,.52,4,5.65,5.65,0,0,0,1.39,2.38,5.51,5.51,0,0,0,2.38,1.32,15.92,15.92,0,0,0,7.64,0,5.21,5.21,0,0,0,3.78-3.7,13,13,0,0,0,.52-4,13.25,13.25,0,0,0-.52-4,5.2,5.2,0,0,0-3.78-3.71A13.85,13.85,0,0,0,233.76,37Z"/><path class="cls-1" d="M21.83,45.18a17.46,17.46,0,0,1-.62,5,7.62,7.62,0,0,1-1.84,3.25,6.72,6.72,0,0,1-3,1.74,15.25,15.25,0,0,1-4.21.52H1.44v-21H12.13a15.25,15.25,0,0,1,4.21.52,6.87,6.87,0,0,1,3,1.77,7.66,7.66,0,0,1,1.84,3.23A17.07,17.07,0,0,1,21.83,45.18Zm-1.25,0A17.44,17.44,0,0,0,20.15,41a6.62,6.62,0,0,0-1.41-2.87,5.72,5.72,0,0,0-2.6-1.65,13.16,13.16,0,0,0-4-.53H2.69V54.48h9.44a13.16,13.16,0,0,0,4-.53,5.72,5.72,0,0,0,2.6-1.65,6.59,6.59,0,0,0,1.41-2.89A17.89,17.89,0,0,0,20.58,45.18Z"/><path class="cls-1" d="M12.13,57.23H0v-24H12.13a16.78,16.78,0,0,1,4.59.58,8.35,8.35,0,0,1,3.65,2.13,9.43,9.43,0,0,1,2.21,3.86,18.86,18.86,0,0,1,.68,5.41,19.25,19.25,0,0,1-.68,5.49,9.38,9.38,0,0,1-2.21,3.88,8.31,8.31,0,0,1-3.66,2.11A16.73,16.73,0,0,1,12.13,57.23ZM4.12,53h8a11.66,11.66,0,0,0,3.58-.46,4.27,4.27,0,0,0,2-1.23A5.27,5.27,0,0,0,18.76,49a17,17,0,0,0,.38-3.86,16.6,16.6,0,0,0-.38-3.81,5.3,5.3,0,0,0-1.08-2.22,4.27,4.27,0,0,0-2-1.23,11.66,11.66,0,0,0-3.58-.46h-8Z"/><path class="cls-1" d="M38.42,35.63a4.89,4.89,0,0,1,.37-.76.44.44,0,0,1,.39-.2.42.42,0,0,1,.36.2,4.16,4.16,0,0,1,.41.76l8.7,20.08H47.2l-2.78-6.46H34l-2.78,6.46H29.69ZM44,48.35,39.17,37.08,34.36,48.35Z"/><path class="cls-1" d="M50.88,57.22h-4.6l-2.79-6.47H34.88L32.1,57.22H27.45L37.11,35a7.81,7.81,0,0,1,.47-1,1.89,1.89,0,0,1,3.07-.14,4.69,4.69,0,0,1,.6,1.08ZM36.58,46.84h5.18l-2.59-6.07Z"/><path class="cls-1" d="M130.41,45.18a17.62,17.62,0,0,1-.61,5A7.75,7.75,0,0,1,128,53.46a6.87,6.87,0,0,1-3,1.75,15.58,15.58,0,0,1-4.21.52H110v-21h10.69a14.81,14.81,0,0,1,4.21.53A6.88,6.88,0,0,1,128,37a7.75,7.75,0,0,1,1.84,3.24A17,17,0,0,1,130.41,45.18Zm-1.24,0a18,18,0,0,0-.43-4.18,6.84,6.84,0,0,0-1.41-2.87,5.77,5.77,0,0,0-2.6-1.65,13.19,13.19,0,0,0-4-.53h-9.44V54.48h9.44a13.19,13.19,0,0,0,4-.53,5.77,5.77,0,0,0,2.6-1.65,6.81,6.81,0,0,0,1.41-2.89A18.37,18.37,0,0,0,129.17,45.18Z"/><path class="cls-1" d="M120.71,57.23H108.59v-24h12.12a16.81,16.81,0,0,1,4.6.58A8.28,8.28,0,0,1,129,35.92a9.26,9.26,0,0,1,2.2,3.85,18.49,18.49,0,0,1,.69,5.41,19.38,19.38,0,0,1-.68,5.5A9.4,9.4,0,0,1,129,54.55a8.31,8.31,0,0,1-3.66,2.11A16.8,16.8,0,0,1,120.71,57.23Zm-8-4.26h8a11.73,11.73,0,0,0,3.59-.46,4.24,4.24,0,0,0,2-1.23A5.16,5.16,0,0,0,127.35,49a17,17,0,0,0,.38-3.86,16.6,16.6,0,0,0-.38-3.81,5.2,5.2,0,0,0-1.08-2.21,4.34,4.34,0,0,0-2-1.24,11.73,11.73,0,0,0-3.59-.46h-8Z"/></svg>